<svg width="204" height="74" viewBox="0 0 204 74" fill="none" xmlns="http://www.w3.org/2000/svg">
<rect x="1" y="1" width="202" height="72" rx="6" fill="white"/>
<rect x="1" y="1" width="202" height="72" rx="6" stroke="#2EC4B6" stroke-width="2"/>
<path d="M185.658 17.5C185.658 15.8669 185.009 14.3007 183.854 13.1459C182.699 11.9911 181.133 11.3424 179.5 11.3424C177.867 11.3424 176.301 11.9911 175.146 13.1459C173.991 14.3007 173.342 15.8669 173.342 17.5C173.342 19.1331 173.991 20.6993 175.146 21.854C176.301 23.0088 177.867 23.6576 179.5 23.6576C181.133 23.6576 182.699 23.0088 183.854 21.854C185.009 20.6993 185.658 19.1331 185.658 17.5ZM181.517 15.5588C181.599 15.4772 181.696 15.4125 181.802 15.3683C181.909 15.3241 182.023 15.3014 182.139 15.3014C182.254 15.3014 182.368 15.3241 182.475 15.3683C182.582 15.4125 182.679 15.4772 182.76 15.5588C182.842 15.6404 182.906 15.7373 182.951 15.8439C182.995 15.9506 183.018 16.0649 183.018 16.1803C183.018 16.2957 182.995 16.41 182.951 16.5166C182.906 16.6232 182.842 16.7201 182.76 16.8017L180.122 19.4411C180.041 19.523 179.944 19.588 179.837 19.6323C179.73 19.6766 179.616 19.6994 179.5 19.6994C179.384 19.6994 179.27 19.6766 179.163 19.6323C179.056 19.588 178.959 19.523 178.878 19.4411L176.239 16.8033L176.179 16.736C176.04 16.5674 175.969 16.3531 175.98 16.1349C175.99 15.9168 176.082 15.7103 176.236 15.5559C176.391 15.4015 176.597 15.3102 176.815 15.2998C177.034 15.2893 177.248 15.3605 177.416 15.4994L177.483 15.5596L179.5 17.5752L181.517 15.5588ZM187.417 17.5C187.417 21.8724 183.872 25.4166 179.5 25.4166C175.128 25.4166 171.583 21.8724 171.583 17.5C171.583 13.1276 175.128 9.58331 179.5 9.58331C183.872 9.58331 187.417 13.1276 187.417 17.5Z" fill="#2EC4B6"/>
</svg>
