<svg width="60" height="60" viewBox="0 0 60 60" fill="none" xmlns="http://www.w3.org/2000/svg">
<path d="M21 59.85C14.9 59.15 9.875 56.525 5.925 51.975C1.975 47.425 0 41.9 0 35.4C0 30.4 1.988 24.963 5.964 19.089C9.94 13.215 15.952 6.852 24 0C32.05 6.85 38.063 13.213 42.039 19.089C46.015 24.965 48.002 30.402 48 35.4V36H42V35.4C42 31.75 40.487 27.625 37.461 23.025C34.435 18.425 29.948 13.4 24 7.95C18.05 13.4 13.563 18.425 10.539 23.025C7.515 27.625 6.002 31.75 6 35.4C6 40.25 7.4 44.35 10.2 47.7C13 51.05 16.6 53.075 21 53.775V59.85ZM27 60V42H37.5C38.7 42 39.75 42.45 40.65 43.35C41.55 44.25 42 45.3 42 46.5V49.5C42 50.7 41.55 51.75 40.65 52.65C39.75 53.55 38.7 54 37.5 54H31.5V60H27ZM45 60V42H49.5V48H55.5V42H60V60H55.5V52.5H49.5V60H45ZM31.5 49.5H37.5V46.5H31.5V49.5Z" fill="#2EC4B6"/>
</svg>
