<svg width="34" height="66" viewBox="0 0 34 66" fill="none" xmlns="http://www.w3.org/2000/svg">
<path d="M17 65C20.3581 65 23.6311 63.9434 26.3554 61.9799C29.0796 60.0164 31.117 57.2454 32.1789 54.0596C33.2409 50.8739 33.2735 47.4347 32.2722 44.2293C31.2709 41.0239 29.2865 38.2149 26.6 36.2V10.6C26.6 7.6176 26.6 6.1264 26.1136 4.9488C25.4641 3.38133 24.2187 2.13594 22.6512 1.4864C21.48 1 19.9824 1 17 1C14.0176 1 12.5232 1 11.3488 1.4864C9.78133 2.13594 8.53594 3.38133 7.8864 4.9488C7.4 6.1264 7.4 7.6176 7.4 10.6V36.2C4.7135 38.2149 2.72907 41.0239 1.72778 44.2293C0.726501 47.4347 0.759137 50.8739 1.82107 54.0596C2.883 57.2454 4.92039 60.0164 7.64464 61.9799C10.3689 63.9434 13.6419 65 17 65Z" stroke="#2EC4B6" stroke-width="1.5" stroke-linecap="round" stroke-linejoin="round"/>
<path d="M17 42.6C15.3026 42.6 13.6747 43.2743 12.4745 44.4745C11.2743 45.6748 10.6 47.3026 10.6 49C10.6 50.6974 11.2743 52.3253 12.4745 53.5255C13.6747 54.7257 15.3026 55.4 17 55.4C18.6974 55.4 20.3252 54.7257 21.5255 53.5255C22.7257 52.3253 23.4 50.6974 23.4 49C23.4 47.3026 22.7257 45.6748 21.5255 44.4745C20.3252 43.2743 18.6974 42.6 17 42.6ZM17 42.6V20.2" stroke="#2EC4B6" stroke-width="1.5" stroke-linecap="round" stroke-linejoin="round"/>
</svg>
